:SAMPLES-PER-SECOND 30
:FULLY-SPECIFIED
:DEGREES
2908
root  12.436 40.9157 11.7287 60.8792 88.6937 62.8341
RightUpLeg  2.7359 -9.14538 -7.49594
RightLeg  4.87406 -7.07252 3.04915
RightFoot  -2.34126 -0.0579239 0.623527
RightToes  0.000481921 0.542163 -0.142578
Spine  -7.10018 0.692355 -0.177281
Spine1  25.7029 -0.0701744 2.11646
HEad  20.1534 -3.53521 1.08223
LeftShoulder1  11.5603 -16.1701 -51.2867
LeftArm  14.2912 4.83939 -24.2246
LeftForeArm  112.544 -80.653 -95.5036
LeftHand  -0.25398 0.0180481 5.50724
RightShoulder  7.4601 12.1316 41.4803
RightArm  15.6671 -9.63795 26.2772
RightForeArm  87.0152 79.238 98.849
RightHand  -1.55444 4.54816 -18.3622
LeftUpLeg  4.68401 5.87004 3.79561
LeftLeg  -0.178659 23.1875 -4.44819
LeftFoot  -0.262246 0.183602 -1.89012
LeftToes  1.06245e-005 4.65868e-005 -8.65517e-006
2909
root  12.485 40.9154 11.7044 60.3729 88.7244 62.2472
RightUpLeg  2.76113 -9.07923 -7.46212
RightLeg  4.7921 -7.14493 2.99716
RightFoot  -2.34884 -0.0635216 0.717357
RightToes  0.000481921 0.542163 -0.142578
Spine  -7.17061 0.628645 -0.206723
Spine1  25.5618 -0.205831 2.26904
HEad  17.6483 -3.64058 1.53892
LeftShoulder1  11.5817 -16.1889 -51.3319
LeftArm  14.1689 5.15085 -24.1056
LeftForeArm  113.084 -80.6367 -96.1678
LeftHand  -0.25398 0.0180481 5.50724
RightShoulder  7.42739 12.1073 41.3536
RightArm  15.7813 -9.74026 26.4189
RightForeArm  86.8969 79.253 98.5705
RightHand  -1.55266 4.63719 -18.187
LeftUpLeg  4.6594 5.89963 3.80766
LeftLeg  -0.133566 23.154 -4.45966
LeftFoot  -0.36323 0.182146 -1.87511
LeftToes  1.06245e-005 4.65868e-005 -8.65517e-006
2910
root  12.532 40.9148 11.6798 57.5749 88.7393 59.3482
RightUpLeg  2.75235 -9.00985 -7.42177
RightLeg  4.71249 -7.15032 2.96076
RightFoot  -2.34989 -0.0713333 0.846226
RightToes  0.000481921 0.542163 -0.142578
Spine  -7.23778 0.616393 -0.123717
Spine1  25.3667 -0.264811 2.34777
HEad  15.2479 -3.48252 2.0448
LeftShoulder1  11.6341 -16.2366 -51.4376
LeftArm  14.1745 5.38337 -23.954
LeftForeArm  113.427 -80.6214 -96.657
LeftHand  -0.25398 0.0180481 5.50724
RightShoulder  7.39336 12.0785 41.2311
RightArm  15.7729 -9.85116 26.5112
RightForeArm  87.3812 79.281 98.4859
RightHand  -1.52133 4.56346 -17.9581
LeftUpLeg  4.59638 5.93247 3.82524
LeftLeg  -0.0482571 23.1712 -4.44867
LeftFoot  -0.471026 0.181065 -1.86419
LeftToes  1.06245e-005 4.65868e-005 -8.65517e-006
2911
root  12.5807 40.9138 11.6589 53.6077 88.693 55.3418
RightUpLeg  2.78811 -8.98204 -7.43497
RightLeg  4.67003 -7.0593 2.93394
RightFoot  -2.36852 -0.0764787 0.934351
RightToes  0.000481921 0.542163 -0.142578
Spine  -7.30203 0.646096 -0.0439471
Spine1  25.2281 -0.269 2.41461
HEad  13.061 -3.14701 2.69335
LeftShoulder1  11.681 -16.2967 -51.4871
LeftArm  14.2057 5.52162 -23.9078
LeftForeArm  113.429 -80.6184 -96.7042
LeftHand  -0.25398 0.0180481 5.50724
RightShoulder  7.38652 12.0851 41.1711
RightArm  15.6809 -9.90751 26.5485
RightForeArm  88.0065 79.2905 98.7453
RightHand  -1.48437 4.33517 -17.927
LeftUpLeg  4.64359 5.94036 3.80953
LeftLeg  -0.0368602 23.2636 -4.45597
LeftFoot  -0.556135 0.181892 -1.88127
LeftToes  1.06245e-005 4.65868e-005 -8.65517e-006
2912
root  12.6369 40.9118 11.6435 51.9726 88.6062 53.7756
RightUpLeg  2.92985 -9.02576 -7.5387
RightLeg  4.69524 -6.92448 2.91729
RightFoot  -2.43801 -0.0779597 0.966197
RightToes  0.000481921 0.542163 -0.142578
Spine  -7.35639 0.664813 -0.0830248
Spine1  25.1835 -0.28038 2.50873
HEad  11.1738 -2.5857 3.45759
LeftShoulder1  11.6967 -16.3568 -51.4018
LeftArm  14.1648 5.59607 -24.0257
LeftForeArm  113.034 -80.6277 -96.2748
LeftHand  -0.25398 0.0180481 5.50724
RightShoulder  7.41826 12.1229 41.254
RightArm  15.6405 -9.85834 26.513
RightForeArm  88.3074 79.2872 98.9755
RightHand  -1.48001 4.25984 -18.0082
LeftUpLeg  4.86201 5.91938 3.74868
LeftLeg  -0.1228 23.3557 -4.49957
LeftFoot  -0.612265 0.183001 -1.90112
LeftToes  1.06245e-005 4.65868e-005 -8.65517e-006
2913
root  12.6984 40.9085 11.6301 52.5526 88.536 54.4784
RightUpLeg  3.12843 -9.12625 -7.69683
RightLeg  4.77714 -6.78048 2.9343
RightFoot  -2.5541 -0.0775333 0.968985
RightToes  0.000481921 0.542163 -0.142578
Spine  -7.40776 0.653901 -0.166258
Spine1  25.1774 -0.311276 2.58247
HEad  9.58431 -1.84516 4.07759
LeftShoulder1  11.6957 -16.4029 -51.2795
LeftArm  14.0932 5.60141 -24.1873
LeftForeArm  112.577 -80.6397 -95.7472
LeftHand  -0.25398 0.0180481 5.50724
RightShoulder  7.46547 12.1507 41.4577
RightArm  15.6833 -9.72076 26.3981
RightForeArm  88.3657 79.2902 98.97
RightHand  -1.51475 4.45669 -18.0665
LeftUpLeg  5.12967 5.88992 3.67459
LeftLeg  -0.188064 23.3948 -4.52921
LeftFoot  -0.676492 0.183378 -1.90809
LeftToes  1.06245e-005 4.65868e-005 -8.65517e-006
2914
root  12.7588 40.904 11.6177 52.3939 88.5 54.3954
RightUpLeg  3.27769 -9.22272 -7.81931
RightLeg  4.85669 -6.63752 2.98367
RightFoot  -2.67204 -0.0758501 0.952765
RightToes  0.000481921 0.542163 -0.142578
Spine  -7.52881 0.647881 -0.158849
Spine1  25.1885 -0.324113 2.59285
HEad  8.29222 -1.16741 4.34768
LeftShoulder1  11.6988 -16.425 -51.2307
LeftArm  14.0606 5.52659 -24.2899
LeftForeArm  112.472 -80.6482 -95.5302
LeftHand  -0.25398 0.0180481 5.50724
RightShoulder  7.49613 12.1489 41.6463
RightArm  15.7533 -9.5725 26.287
RightForeArm  88.3038 79.2702 99.2015
RightHand  -1.54907 4.55125 -18.2959
LeftUpLeg  5.2969 5.8789 3.63578
LeftLeg  -0.151759 23.4098 -4.50916
LeftFoot  -0.778158 0.184616 -1.927
LeftToes  1.06245e-005 4.65868e-005 -8.65517e-006
2915
root  12.817 40.9005 11.6114 50.1195 88.4864 52.1363
RightUpLeg  3.37738 -9.2436 -7.83748
RightLeg  4.8674 -6.54919 3.01041
RightFoot  -2.7472 -0.0743641 0.940054
RightToes  0.000481921 0.542163 -0.142578
Spine  -7.74929 0.668904 -0.0736762
Spine1  25.2353 -0.311231 2.58605
HEad  7.31299 -0.761915 4.35762
LeftShoulder1  11.6971 -16.4269 -51.226
LeftArm  14.0314 5.42154 -24.3782
LeftForeArm  112.653 -80.6523 -95.598
LeftHand  -0.25398 0.0180481 5.50724
RightShoulder  7.50183 12.1383 41.7109
RightArm  15.8228 -9.48299 26.3039
RightForeArm  88.0246 79.198 99.9832
RightHand  -1.54501 4.25639 -18.7796
LeftUpLeg  5.38759 5.90931 3.66871
LeftLeg  -0.0802179 23.4215 -4.48366
LeftFoot  -0.897134 0.187961 -1.9773
LeftToes  1.06245e-005 4.65868e-005 -8.65517e-006
2916
root  12.8763 40.8994 11.6126 47.3249 88.4911 49.3784
RightUpLeg  3.52555 -9.17667 -7.7739
RightLeg  4.8117 -6.56445 2.97037
RightFoot  -2.77965 -0.0764346 0.982937
RightToes  0.000481921 0.542163 -0.142578
Spine  -7.9738 0.685621 -0.0115153
Spine1  25.2913 -0.314203 2.61554
HEad  6.59115 -0.613558 4.30808
LeftShoulder1  11.6845 -16.4124 -51.2084
LeftArm  13.945 5.34157 -24.4954
LeftForeArm  112.673 -80.652 -95.6167
LeftHand  -0.25398 0.0180481 5.50724
RightShoulder  7.49951 12.1437 41.6816
RightArm  15.8691 -9.44685 26.4422
RightForeArm  87.8108 79.1362 100.646
RightHand  -1.4967 3.846 -18.9749
LeftUpLeg  5.5325 5.97768 3.76336
LeftLeg  -0.0593191 23.3972 -4.50134
LeftFoot  -0.997613 0.192336 -2.04234
LeftToes  1.06245e-005 4.65868e-005 -8.65517e-006
2917
root  12.9379 40.8986 11.6137 46.4999 88.5064 48.6385
RightUpLeg  3.71919 -9.10438 -7.73488
RightLeg  4.7952 -6.62025 2.89436
RightFoot  -2.82277 -0.0822377 1.0841
RightToes  0.000481921 0.542163 -0.142578
Spine  -8.14114 0.661278 -0.00792362
Spine1  25.3231 -0.355433 2.65191
HEad  6.00628 -0.598022 4.24938
LeftShoulder1  11.6627 -16.3773 -51.203
LeftArm  13.8318 5.27594 -24.5762
LeftForeArm  112.37 -80.6486 -95.447
LeftHand  -0.25398 0.0180481 5.50724
RightShoulder  7.50801 12.1657 41.6691
RightArm  15.8298 -9.40451 26.5545
RightForeArm  88.262 79.1732 100.437
RightHand  -1.42209 3.69036 -18.355
LeftUpLeg  5.74196 6.03133 3.83643
LeftLeg  -0.0731486 23.3399 -4.53465
LeftFoot  -1.07034 0.195986 -2.09489
LeftToes  1.06245e-005 4.65868e-005 -8.65517e-006
2918
root  12.9992 40.8954 11.6108 48.3645 88.5003 50.566
RightUpLeg  3.83482 -9.11957 -7.80018
RightLeg  4.91553 -6.60257 2.84624
RightFoot  -2.92666 -0.0868043 1.16637
RightToes  0.000481921 0.542163 -0.142578
Spine  -8.33726 0.612365 -0.0452134
Spine1  25.3701 -0.401307 2.64843
HEad  5.48344 -0.637726 4.13097
LeftShoulder1  11.644 -16.3347 -51.2302
LeftArm  13.7558 5.21139 -24.5741
LeftForeArm  112.077 -80.6439 -95.302
LeftHand  -0.25398 0.0180481 5.50724
RightShoulder  7.52662 12.1857 41.7229
RightArm  15.6904 -9.32996 26.563
RightForeArm  89.255 79.2735 99.7292
RightHand  -1.35081 3.74054 -17.3742
LeftUpLeg  5.9008 6.01622 3.80525
LeftLeg  -0.0636376 23.3156 -4.52848
LeftFoot  -1.12635 0.198392 -2.12696
LeftToes  1.06245e-005 4.65868e-005 -8.65517e-006
2919
root  13.0574 40.8903 11.6107 50.9772 88.4651 53.1963
RightUpLeg  3.86442 -9.20628 -7.92051
RightLeg  5.10969 -6.51502 2.84414
RightFoot  -3.0687 -0.0864701 1.17286
RightToes  0.000481921 0.542163 -0.142578
Spine  -8.60846 0.58541 -0.105658
Spine1  25.4705 -0.410839 2.61885
HEad  5.02896 -0.660353 3.96308
LeftShoulder1  11.6361 -16.3176 -51.2395
LeftArm  13.7163 5.2037 -24.548
LeftForeArm  112.158 -80.6388 -95.4483
LeftHand  -0.25398 0.0180481 5.50724
RightShoulder  7.53758 12.1842 41.7925
RightArm  15.5303 -9.26393 26.5441
RightForeArm  90.0407 79.3319 99.433
RightHand  -1.30861 3.7263 -16.8736
LeftUpLeg  5.98201 5.96057 3.71569
LeftLeg  -0.0156109 23.3373 -4.48091
LeftFoot  -1.18051 0.200378 -2.15144
LeftToes  1.06245e-005 4.65868e-005 -8.65517e-006
2920
root  13.1116 40.886 11.6197 51.9591 88.4546 54.2261
RightUpLeg  3.96302 -9.26334 -7.97586
RightLeg  5.20908 -6.46966 2.85997
RightFoot  -3.17707 -0.0832938 1.13545
RightToes  0.000481921 0.542163 -0.142578
Spine  -8.83172 0.59329 -0.14261
Spine1  25.5676 -0.383459 2.58181
HEad  4.672 -0.58448 3.79735
LeftShoulder1  11.6344 -16.3323 -51.1947
LeftArm  13.6823 5.30168 -24.553
LeftForeArm  112.61 -80.6311 -95.9112
LeftHand  -0.25398 0.0180481 5.50724
RightShoulder  7.53036 12.1581 41.8243
RightArm  15.414 -9.25574 26.5651
RightForeArm  90.3517 79.3323 99.6156
RightHand  -1.29206 3.59175 -16.9029
LeftUpLeg  6.087 5.94943 3.70444
LeftLeg  0.0553473 23.3283 -4.42822
LeftFoot  -1.24499 0.203138 -2.18698
LeftToes  1.06245e-005 4.65868e-005 -8.65517e-006
